# xmcd
#
# Track frame offsets: 
#        150
#        12269
#        31087
#        49293
#        69723
#        87371
#        107399
#        129682
#        145849
#        165317
#        185512
#        205621
#        225675
#        245786
#        260113
#        286401
#        306492
#        317663
#
# Disc length: 4533 seconds
#
# Revision: 14
# Processed by: cddbd v1.5.2PL0 Copyright (c) Steve Scherf et al.
# Submitted via: ExactAudioCopy v1.0b1
#
DISCID=0411b312
DTITLE=Nelson, Willie and Friends (Live) - Stars and Guitars
DYEAR=2002
DGENRE=Country
TTITLE0=with Sheryl Crow - Whiskey River
TTITLE1=with Toby Keith - Good Hearted Woman
TTITLE2=with Rob Thomas and Bill Evans - Maria (Shut Up And Kiss Me)
TTITLE3=with Lee Ann Womack - Mendocino County Line
TTITLE4=with Jon Bon Jovi and Richie Sambora - Always On My Mind
TTITLE5=with Ray Price - Night Life
TTITLE6=with Ryan Adams, Hank Williams III and Keith Richards - Dead F
TTITLE6=lowers
TTITLE7=Nelson, Willie with Norah Jones - Lonestar
TTITLE8=with Aaron Neville - Stardust
TTITLE9=with Brian McKnight and Bill Evans - Don't Fade Away
TTITLE10=with Patty Griffin - Angel Flying Too Close To The Ground
TTITLE11=with Sheryl Crow and Bill Evans - For What It's Worth
TTITLE12=with Matchbox Twenty - Mammas Don't Let Your Babies Grow Up T
TTITLE12=o Be Cowboys
TTITLE13=with Vince Gill - Blue Eyes Crying In The Rain
TTITLE14=with Emmylou Harris - Till I Gain Control Again
TTITLE15=with Ryan Adams - The Harder They Come
TTITLE16=Nelson, Willie and Family - On The Road Again
TTITLE17=Nelson, Willie and Family - Move It On Over
EXTD=
EXTT0=
EXTT1=
EXTT2=
EXTT3=
EXTT4=
EXTT5=
EXTT6=
EXTT7=
EXTT8=
EXTT9=
EXTT10=
EXTT11=
EXTT12=
EXTT13=
EXTT14=
EXTT15=
EXTT16=
EXTT17=
PLAYORDER=
